<svg viewBox="0 0 96 96" xmlns="http://www.w3.org/2000/svg" xmlns:xlink="http://www.w3.org/1999/xlink" id="Icons_FilmReel" overflow="hidden"><path d="M58 58C58 56 58.8 54.1 60 52.7L60 55C60 58.3 60.5 61.6 61.5 64.6 59.4 63.1 58 60.7 58 58ZM48 56C43.6 56 40 52.4 40 48 40 43.6 43.6 40 48 40 52.4 40 56 43.6 56 48 56 52.4 52.4 56 48 56ZM48 76C43.6 76 40 72.4 40 68 40 63.6 43.6 60 48 60 52.4 60 56 63.6 56 68 56 72.4 52.4 76 48 76ZM30 66C25.6 66 22 62.4 22 58 22 53.6 25.6 50 30 50 34.4 50 38 53.6 38 58 38 62.4 34.4 66 30 66ZM30 30C32.9 30 35.5 31.6 36.9 33.9 33.2 36.8 30.7 41.1 30.2 46L30.1 46C25.7 46 22.1 42.4 22.1 38 22.1 33.6 25.6 30 30 30ZM48 20C52.4 20 56 23.6 56 28 56 29.3 55.7 30.4 55.2 31.5 53 30.5 50.6 30 48 30 45.4 30 43 30.5 40.8 31.5 40.3 30.4 40 29.3 40 28 40 23.6 43.6 20 48 20ZM66 30C70.4 30 74 33.6 74 38 74 42.4 70.4 46 66 46L65.9 46C65.4 41.1 62.8 36.8 59.2 33.9 60.5 31.6 63.1 30 66 30ZM66 55 66 50C70.4 50 74 53.6 74 58 74 61.6 71.6 64.7 68.3 65.7 66.8 62.4 66 58.8 66 55ZM92 81C85.5 81 79.6 78.6 75 74.7 81.8 67.8 86 58.4 86 48 86 27 69 10 48 10 27 10 10 27 10 48 10 69 27 86 48 86 56.4 86 64.2 83.3 70.5 78.6 76.2 83.8 83.7 87 92 87L92 81Z" fill="#FFC803"/></svg>