<svg viewBox="0 0 96 96" xmlns="http://www.w3.org/2000/svg" xmlns:xlink="http://www.w3.org/1999/xlink" id="Icons_Popcorn" overflow="hidden"><path d="M73.6 35.3C74.6 33.5 74.9 31.4 74.4 29.4 76.2 26.9 76.6 23.6 75 20.7 74.6 20 74.2 19.4 73.6 18.9 75 19.3 76.1 20.4 76.6 22 76.6 22.1 76.6 22.2 76.6 22.3 78.5 22.4 80.1 23.7 80.7 25.5 81.4 27.9 80 30.4 77.6 31.1 78 32.4 77.7 33.7 77 34.8 75.9 34.9 74 35.3 73.6 35.3ZM67 81.5 61.3 81.5 64.6 42.6C68.4 42.2 71.7 41.7 74.4 41.2L67 81.5ZM57.3 81.5 50 81.5 50 43.5C53.8 43.5 57.3 43.3 60.6 43L57.3 81.5ZM47.8 27.8C48.7 27.2 49.8 27 50.9 27.2 50.9 27.1 51 27.1 51 27 52.2 25.1 54.6 24.6 56.5 25.7 58.4 26.8 58.9 29.3 57.8 31.2 57.8 31.3 57.7 31.3 57.7 31.4 58.7 32.7 58.9 34.5 58 36 57.7 36.5 57.3 36.9 56.8 37.2 56.2 37.2 52.2 37.4 49.1 37.4 49.7 36.2 50.1 34.9 50.1 33.4 50 31.3 49.2 29.3 47.8 27.8ZM46 81.5 38.7 81.5 35.4 43C38.6 43.3 42.2 43.4 46 43.5L46 81.5ZM29.1 81.5 22.4 41.3C24.9 41.8 27.9 42.2 31.4 42.6L34.7 81.5 29.1 81.5ZM19 32.5C19 30.2 20.9 28.3 23.2 28.3 23.7 28.3 24.2 28.4 24.6 28.6 24.6 28.5 24.6 28.4 24.6 28.3 24.6 26 23.8 24.1 26.1 24.1 26.4 24.1 26.6 24.1 26.8 24.2 26.8 24.3 26.9 24.4 26.9 24.5 27.1 24.8 27.2 25.1 27.4 25.3 27.4 26.5 27.8 27.7 28.3 28.9 27.4 30.3 26.8 31.9 26.8 33.7 26.8 34.6 26.9 35.4 27.2 36.3 24 35.8 21.4 35.3 19.4 34.9 19.2 34 19 33.3 19 32.5ZM32.4 16.2C32.7 16 33 15.9 33.3 15.8 33.6 14.7 34.4 13.7 35.5 13.1 37.8 11.9 40.6 12.7 41.8 15 41.9 15.2 42 15.5 42.1 15.7 43.8 15.6 45.6 16.5 46.4 18.1 47.5 20.1 46.9 22.6 45.2 23.9 43.6 21.9 41.2 20.6 38.5 20.6 35.7 20.6 33.2 22 31.7 24.1 31.7 24 31.7 24 31.7 23.9 31.3 23.5 30.9 23.1 30.6 22.5 29.3 20.2 30.2 17.4 32.4 16.2ZM43.7 37.4C39.5 37.3 35.7 37 32.4 36.7 31.6 35.9 31.1 34.8 31.1 33.5 31.1 31.5 32.4 29.9 34.1 29.3 34.1 29.2 34.1 29.1 34.1 29 34.1 26.5 36.1 24.5 38.6 24.5 41.1 24.5 43.1 26.5 43.1 29 43.1 29.1 43.1 29.2 43.1 29.3 44.9 29.9 46.1 31.6 46.1 33.5 46 35.2 45 36.7 43.7 37.4ZM51.2 16.2C51.7 16.2 52.2 16.3 52.6 16.5 52.6 16.4 52.6 16.3 52.6 16.2 52.6 13.9 54.5 12 56.8 12 59.1 12 61 13.9 61 16.2 61 16.3 61 16.4 61 16.5 61 16.5 61 16.5 60.9 16.5 59.6 16.5 58.2 16.8 57.1 17.5 55.6 18.3 54.4 19.6 53.6 21.2 52.6 21.3 51.6 21.6 50.6 22 51 20.1 50.7 18.2 49.9 16.5 50.5 16.3 50.9 16.2 51.2 16.2ZM64.5 22.4C64.9 21.8 65.3 21.4 66 21 68 19.9 70.5 20.7 71.5 22.6 72.6 24.6 71.8 27.1 69.9 28.1 69.7 28.2 69.5 28.3 69.4 28.3 69.7 28.6 70 28.9 70.2 29.3 71.3 31.3 70.5 33.8 68.6 34.8 67 35.6 65.2 35.4 63.9 34.2 63.7 34.4 63.4 34.6 63.1 34.8 62.9 34.9 62.7 35 62.4 35.1 62.6 33.8 62.5 32.4 62.1 31.1 63.1 27.8 61.7 24 58.7 22.1 58.5 22 58.3 21.9 58 21.8 58.3 21.4 58.7 21.1 59.2 20.8 61 20 63.3 20.6 64.5 22.4ZM84.6 24.4C83.9 21.8 82 19.8 79.6 18.9 77.7 15.7 73.8 14 70 15.1 68.9 15.4 67.9 16 67 16.7 66.7 16.7 66.4 16.8 66.2 16.8 65.9 16.4 65.6 16.1 65.2 15.8 64.9 11.4 61.3 8 56.9 8 53.7 8 51 9.8 49.6 12.4 48.8 12.6 48.1 12.8 47.4 13.2 46.6 12.6 45.6 12.1 44.6 11.9 43 9.8 40.5 8.5 37.7 8.5 36.3 8.5 34.8 8.9 33.6 9.5 32.2 10.3 31 11.4 30.3 12.7 27.7 14.2 26.1 17 26 19.9 22.9 20 21.6 21.6 21.6 24.3 17.8 25.1 15 28.4 15 32.4 15 32.8 15 33.4 15 33.4L24 87.4 72 87.4 82 33.4 81.7 33.2C84.3 31.2 85.5 27.7 84.6 24.4Z" fill="#FFC803"/></svg>